<?xml version="1.0" encoding="UTF-8"?>
<svg xmlns="http://www.w3.org/2000/svg" xmlns:xlink="http://www.w3.org/1999/xlink" viewBox="0 0 48 48" version="1.1" width="48px" height="48px">
<g id="surface1">
<path style=" fill:#1565C0;" d="M 31.355469 28.429688 L 27.804688 24.871094 L 24.335938 28.347656 L 20.785156 31.902344 L 20.089844 32.601563 C 18.941406 33.753906 17.066406 33.757813 15.90625 32.597656 C 14.761719 31.445313 14.753906 29.585938 15.894531 28.429688 L 12.339844 24.871094 C 10.285156 26.9375 9.59375 29.851563 10.265625 32.484375 C 8.140625 32.984375 6.558594 34.894531 6.558594 37.175781 C 6.558594 39.835938 8.714844 41.996094 11.375 41.996094 C 13.664063 41.992188 15.578125 40.398438 16.070313 38.257813 C 18.695313 38.910156 21.589844 38.210938 23.640625 36.15625 L 24.339844 35.460938 L 27.890625 31.898438 Z "/>
<path style=" fill:#FF9800;" d="M 42.519531 10.820313 C 42.519531 8.160156 40.363281 6 37.703125 6 C 35.269531 6 33.257813 7.808594 32.933594 10.15625 C 30.222656 9.363281 27.175781 10.035156 25.035156 12.175781 L 20.785156 16.425781 L 17.3125 19.902344 L 20.867188 23.460938 L 24.339844 19.984375 L 27.894531 16.429688 L 28.585938 15.734375 C 29.746094 14.578125 31.609375 14.578125 32.761719 15.730469 C 33.910156 16.878906 33.910156 18.742188 32.769531 19.898438 L 32.769531 19.902344 L 36.324219 23.457031 C 38.4375 21.328125 39.113281 18.304688 38.339844 15.605469 C 40.699219 15.292969 42.519531 13.273438 42.519531 10.820313 Z "/>
<path style=" fill:#F44336;" d="M 38.425781 32.40625 C 39.0625 29.789063 38.355469 26.90625 36.3125 24.863281 L 35.617188 24.164063 L 32.0625 20.605469 L 28.601563 17.132813 L 28.601563 17.136719 L 25.046875 20.691406 L 28.511719 24.164063 L 32.0625 27.722656 L 32.757813 28.417969 C 33.914063 29.578125 33.914063 31.445313 32.765625 32.601563 C 31.617188 33.75 29.753906 33.75 28.601563 32.609375 L 25.050781 36.167969 L 25.046875 36.167969 C 27.210938 38.324219 30.300781 38.980469 33.027344 38.144531 C 33.472656 40.34375 35.417969 42 37.746094 42 C 40.402344 42 42.5625 39.84375 42.5625 37.179688 C 42.5625 34.746094 40.765625 32.734375 38.425781 32.40625 Z "/>
<path style=" fill:#4CAF50;" d="M 20.078125 31.195313 L 23.628906 27.640625 L 23.632813 27.640625 L 20.15625 24.164063 L 16.605469 20.609375 L 15.90625 19.914063 C 14.757813 18.761719 14.757813 16.882813 15.914063 15.726563 C 17.0625 14.578125 18.925781 14.574219 20.078125 15.714844 L 23.632813 12.15625 C 21.609375 10.136719 18.769531 9.429688 16.175781 10.039063 C 15.804688 7.75 13.816406 6.003906 11.421875 6 C 8.761719 6 6.609375 8.160156 6.609375 10.820313 C 6.609375 13.121094 8.210938 15.039063 10.359375 15.527344 C 9.542969 18.25 10.207031 21.320313 12.355469 23.472656 L 13.050781 24.164063 L 16.605469 27.722656 Z "/>
</g>
</svg>
